<?xml version="1.0" standalone="no"?>
<!DOCTYPE svg PUBLIC "-//W3C//DTD SVG 20010904//EN"
 "http://www.w3.org/TR/2001/REC-SVG-20010904/DTD/svg10.dtd">
<svg version="1.0" xmlns="http://www.w3.org/2000/svg"
 width="868.000000pt" height="850.000000pt" viewBox="0 0 868.000000 850.000000"
 preserveAspectRatio="xMidYMid meet">

<g transform="translate(0.000000,850.000000) scale(0.100000,-0.100000)"
fill="#000000" stroke="none">
<path d="M1820 8483 c-46 -24 -77 -72 -84 -131 -3 -26 -5 -123 -5 -217 0 -93
0 -178 0 -187 -1 -16 -48 -18 -733 -20 l-733 -3 -56 -26 c-79 -37 -133 -90
-171 -167 l-33 -67 0 -3700 0 -3700 33 -67 c38 -77 92 -130 171 -167 l56 -26
4075 0 4075 0 56 26 c79 37 133 90 171 167 l33 67 0 3700 0 3700 -33 67 c-38
77 -92 130 -171 167 l-56 26 -737 3 -738 2 0 226 c0 248 -3 263 -62 305 -67
48 -175 22 -213 -51 -12 -23 -15 -75 -15 -255 l0 -225 -720 0 -720 0 0 225 c0
180 -3 232 -15 255 -52 100 -208 100 -260 0 -12 -23 -15 -75 -15 -255 l0 -225
-660 0 -660 0 0 225 c0 249 -3 264 -62 306 -44 32 -122 32 -166 0 -59 -42 -62
-57 -62 -306 l0 -225 -635 0 c-349 0 -635 3 -635 8 -1 4 -2 106 -3 227 -2 200
-4 223 -22 254 -43 72 -126 100 -195 64z m-90 -880 c5 -382 4 -377 25 -412 32
-55 69 -76 130 -76 61 0 98 21 130 76 18 31 20 54 22 234 l2 200 635 3 636 2
0 -213 c0 -206 1 -215 23 -248 59 -89 185 -89 244 0 22 33 23 42 23 247 l0
214 660 0 660 0 0 -214 c0 -205 1 -214 23 -247 59 -89 185 -89 244 0 22 33 23
42 23 247 l0 214 720 0 720 0 0 -214 c0 -205 1 -214 23 -247 26 -39 79 -69
122 -69 43 0 96 30 122 69 22 33 23 42 23 247 l0 214 702 0 c639 0 703 -1 720
-17 17 -15 18 -51 18 -725 0 -701 0 -708 -20 -709 -11 0 -1822 0 -4025 0
-2203 0 -4012 0 -4020 0 -13 1 -15 87 -15 708 0 643 1 708 17 725 15 17 51 18
715 18 l698 0 0 -27z m-942 -1737 c6 -4 12 -4 12 1 0 4 1705 8 3790 8 l3790 0
0 -2772 c0 -2506 -2 -2773 -16 -2787 -14 -15 -393 -16 -4024 -16 -3631 0
-4010 1 -4024 16 -14 14 -16 280 -16 2784 0 1836 3 2769 10 2772 21 7 466 2
478 -6z"/>
<path d="M1183 5266 c-103 -33 -176 -97 -222 -196 l-26 -55 0 -340 0 -340 33
-67 c38 -77 92 -130 171 -167 l56 -26 395 0 395 0 67 33 c77 38 130 92 167
171 l26 56 0 340 0 340 -26 56 c-37 79 -90 133 -167 171 l-67 33 -380 2 c-295
2 -389 -1 -422 -11z m749 -303 c17 -15 18 -37 18 -286 0 -238 -2 -273 -17
-289 -15 -17 -39 -18 -344 -18 -284 0 -330 2 -343 16 -14 13 -16 53 -16 286 0
239 2 274 17 290 15 17 39 18 341 18 289 0 327 -2 344 -17z"/>
<path d="M3053 5266 c-103 -33 -176 -97 -222 -196 l-26 -55 0 -340 0 -340 33
-67 c38 -77 92 -130 171 -167 l56 -26 395 0 395 0 67 33 c77 38 130 92 167
171 l26 56 0 340 0 340 -26 56 c-37 79 -90 133 -167 171 l-67 33 -380 2 c-295
2 -389 -1 -422 -11z m749 -303 c17 -15 18 -37 18 -286 0 -238 -2 -273 -17
-289 -15 -17 -39 -18 -344 -18 -284 0 -330 2 -343 16 -14 13 -16 53 -16 286 0
239 2 274 17 290 15 17 39 18 341 18 289 0 327 -2 344 -17z"/>
<path d="M4853 5266 c-103 -33 -176 -97 -222 -196 l-26 -55 0 -340 0 -340 33
-67 c38 -77 92 -130 171 -167 l56 -26 395 0 395 0 67 33 c77 38 130 92 167
171 l26 56 0 340 0 340 -26 56 c-37 79 -90 133 -167 171 l-67 33 -380 2 c-295
2 -389 -1 -422 -11z m749 -303 c17 -15 18 -37 18 -286 0 -238 -2 -273 -17
-289 -15 -17 -39 -18 -344 -18 -284 0 -330 2 -343 16 -14 13 -16 53 -16 286 0
239 2 274 17 290 15 17 39 18 341 18 289 0 327 -2 344 -17z"/>
<path d="M6687 5269 c-98 -23 -190 -101 -235 -197 l-27 -57 0 -340 0 -340 33
-67 c38 -77 92 -130 171 -167 l56 -26 395 0 395 0 67 33 c77 38 130 92 167
171 l26 56 0 340 0 340 -27 57 c-34 73 -103 142 -176 176 l-57 27 -375 2
c-206 1 -392 -3 -413 -8z m737 -305 c24 -23 24 -555 0 -578 -13 -14 -59 -16
-344 -16 -285 0 -331 2 -344 16 -14 13 -16 54 -16 289 0 235 2 276 16 289 13
14 59 16 344 16 285 0 331 -2 344 -16z"/>
<path d="M2312 3714 c-13 -9 -57 -35 -98 -59 l-75 -43 -56 34 c-88 53 -120 56
-523 52 l-365 -3 -67 -33 c-77 -38 -130 -92 -167 -171 l-26 -56 0 -340 0 -340
33 -67 c38 -77 92 -130 171 -167 l56 -26 395 0 395 0 56 26 c79 37 133 90 171
167 l33 67 3 318 c3 272 1 327 -13 375 -17 56 -17 56 6 75 13 10 44 30 69 44
85 49 110 72 110 102 0 54 -60 79 -108 45z m-502 -345 c-120 -107 -184 -178
-317 -355 -25 -34 -18 -40 -108 92 -30 45 -63 84 -73 86 -27 8 -61 -9 -72 -34
-6 -16 -9 12 -9 91 -1 93 2 118 16 133 15 17 38 18 307 18 l291 -1 -35 -30z
m124 -561 c-16 -16 -35 -18 -225 -18 l-208 0 24 36 c14 20 25 42 25 48 0 6 19
34 43 61 23 28 50 61 59 75 43 68 126 162 205 232 l88 77 3 -246 c2 -218 0
-248 -14 -265z m-626 185 c28 -39 63 -96 78 -125 15 -29 34 -58 43 -65 13 -10
-1 -12 -76 -13 -127 0 -123 -6 -123 188 1 139 2 153 14 122 6 -19 35 -67 64
-107z"/>
<path d="M4873 3686 c-103 -33 -176 -97 -222 -196 l-26 -55 0 -340 0 -340 33
-67 c38 -77 92 -130 171 -167 l56 -26 395 0 395 0 67 33 c77 38 130 92 167
171 l26 56 0 340 0 340 -26 56 c-37 79 -90 133 -167 171 l-67 33 -380 2 c-295
2 -389 -1 -422 -11z m749 -303 c17 -15 18 -37 18 -286 0 -238 -2 -273 -17
-289 -15 -17 -39 -18 -344 -18 -284 0 -330 2 -343 16 -14 13 -16 53 -16 286 0
239 2 274 17 290 15 17 39 18 341 18 289 0 327 -2 344 -17z"/>
<path d="M6707 3689 c-98 -23 -190 -101 -235 -197 l-27 -57 0 -340 0 -340 33
-67 c38 -77 92 -130 171 -167 l56 -26 395 0 395 0 67 33 c77 38 130 92 167
171 l26 56 0 340 0 340 -27 57 c-34 73 -103 142 -176 176 l-57 27 -375 2
c-206 1 -392 -3 -413 -8z m737 -305 c24 -23 24 -555 0 -578 -13 -14 -59 -16
-344 -16 -285 0 -331 2 -344 16 -14 13 -16 54 -16 289 0 235 2 276 16 289 13
14 59 16 344 16 285 0 331 -2 344 -16z"/>
<path d="M3053 3676 c-103 -33 -176 -97 -222 -196 l-26 -55 0 -340 0 -340 33
-67 c38 -77 92 -130 171 -167 l56 -26 395 0 395 0 67 33 c77 38 130 92 167
171 l26 56 0 340 0 340 -26 56 c-37 79 -90 133 -167 171 l-67 33 -380 2 c-295
2 -389 -1 -422 -11z m749 -303 c17 -15 18 -37 18 -289 0 -234 -2 -275 -16
-288 -13 -14 -58 -16 -341 -16 -290 0 -328 2 -345 17 -17 15 -18 37 -18 286 0
238 2 273 17 289 15 17 39 18 341 18 289 0 327 -2 344 -17z"/>
<path d="M3053 2106 c-103 -33 -176 -97 -222 -196 l-26 -55 0 -340 0 -340 33
-67 c38 -77 92 -130 171 -167 l56 -26 395 0 395 0 67 33 c77 38 130 92 167
171 l26 56 0 340 0 340 -26 56 c-37 79 -90 133 -167 171 l-67 33 -380 2 c-295
2 -389 -1 -422 -11z m749 -303 c17 -15 18 -37 18 -286 0 -238 -2 -273 -17
-289 -15 -17 -39 -18 -344 -18 -284 0 -330 2 -343 16 -14 13 -16 53 -16 286 0
239 2 274 17 290 15 17 39 18 341 18 289 0 327 -2 344 -17z"/>
<path d="M4887 2109 c-98 -23 -190 -101 -235 -197 l-27 -57 0 -340 0 -340 33
-67 c38 -77 92 -130 171 -167 l56 -26 395 0 395 0 67 33 c77 38 130 92 167
171 l26 56 0 340 0 340 -27 57 c-34 73 -103 142 -176 176 l-57 27 -375 2
c-206 1 -392 -3 -413 -8z m737 -305 c24 -23 24 -555 0 -578 -13 -14 -59 -16
-344 -16 -285 0 -331 2 -344 16 -14 13 -16 54 -16 289 0 235 2 276 16 289 13
14 59 16 344 16 285 0 331 -2 344 -16z"/>
<path d="M1193 2096 c-103 -33 -176 -97 -222 -196 l-26 -55 0 -340 0 -340 33
-67 c38 -77 92 -130 171 -167 l56 -26 395 0 395 0 67 33 c77 38 130 92 167
171 l26 56 0 340 0 340 -26 56 c-37 79 -90 133 -167 171 l-67 33 -380 2 c-295
2 -389 -1 -422 -11z m749 -303 c17 -15 18 -37 18 -289 0 -234 -2 -275 -16
-288 -13 -14 -58 -16 -341 -16 -290 0 -328 2 -345 17 -17 15 -18 37 -18 286 0
238 2 273 17 289 15 17 39 18 341 18 289 0 327 -2 344 -17z"/>
</g>
</svg>
