<?xml version="1.0" standalone="no"?>
<!DOCTYPE svg PUBLIC "-//W3C//DTD SVG 20010904//EN"
 "http://www.w3.org/TR/2001/REC-SVG-20010904/DTD/svg10.dtd">
<svg version="1.0" xmlns="http://www.w3.org/2000/svg"
 width="601.000000pt" height="619.000000pt" viewBox="0 0 601.000000 619.000000"
 preserveAspectRatio="xMidYMid meet">

<g transform="translate(0.000000,619.000000) scale(0.100000,-0.100000)"
fill="#000000" stroke="none">
<path d="M1615 6176 c-37 -16 -70 -52 -84 -89 -6 -16 -11 -102 -11 -197 l0
-169 -627 -3 -628 -3 -57 -27 c-73 -34 -142 -103 -176 -176 l-27 -57 0 -2595
0 -2595 26 -56 c37 -79 90 -133 167 -171 l67 -33 2740 0 2740 0 67 33 c77 38
130 92 167 171 l26 56 0 2595 0 2595 -27 57 c-34 73 -103 142 -176 176 l-57
27 -637 3 -638 3 0 171 c0 153 -2 176 -21 214 -37 78 -141 106 -208 56 -63
-47 -66 -58 -69 -258 l-3 -184 -1175 0 -1174 0 0 172 c0 153 -2 176 -21 214
-15 31 -32 48 -63 63 -49 24 -79 26 -121 7z m-95 -938 c0 -163 2 -186 21 -224
21 -45 81 -84 129 -84 48 0 108 39 129 84 19 38 21 61 21 224 l0 182 1175 0
1175 0 0 -182 c0 -163 2 -186 21 -224 21 -45 81 -84 129 -84 48 0 108 39 129
84 19 38 21 61 21 224 l0 182 604 0 c536 0 606 -2 620 -16 14 -14 16 -259 16
-2544 0 -2285 -2 -2530 -16 -2544 -14 -14 -272 -16 -2689 -16 -2417 0 -2675 2
-2689 16 -14 14 -16 259 -16 2544 0 2285 2 2530 16 2544 14 14 83 16 610 16
l594 0 0 -182z"/>
<path d="M458 4220 c-74 -22 -128 -78 -128 -132 0 -37 36 -86 82 -110 l43 -23
2545 0 2545 0 43 23 c105 56 108 159 4 219 l-47 28 -2530 2 c-1392 1 -2542 -2
-2557 -7z"/>
<path d="M757 3319 c-98 -23 -190 -101 -235 -197 l-27 -57 0 -340 0 -340 33
-67 c38 -77 92 -130 171 -167 l56 -26 395 0 395 0 67 33 c77 38 130 92 167
171 l26 56 0 340 0 340 -27 57 c-34 73 -103 142 -176 176 l-57 27 -375 2
c-206 1 -392 -3 -413 -8z m737 -305 c24 -23 24 -555 0 -578 -13 -14 -59 -16
-344 -16 -285 0 -331 2 -344 16 -24 23 -24 555 0 578 13 14 59 16 344 16 285
0 331 -2 344 -16z"/>
<path d="M2627 3319 c-98 -23 -190 -101 -235 -197 l-27 -57 0 -340 0 -340 33
-67 c38 -77 92 -130 171 -167 l56 -26 395 0 395 0 67 33 c77 38 130 92 167
171 l26 56 0 340 0 340 -27 57 c-34 73 -103 142 -176 176 l-57 27 -375 2
c-206 1 -392 -3 -413 -8z m737 -305 c24 -23 24 -555 0 -578 -13 -14 -59 -16
-344 -16 -285 0 -331 2 -344 16 -14 13 -16 54 -16 289 0 235 2 276 16 289 13
14 59 16 344 16 285 0 331 -2 344 -16z"/>
<path d="M4427 3319 c-98 -23 -190 -101 -235 -197 l-27 -57 0 -340 0 -340 33
-67 c38 -77 92 -130 171 -167 l56 -26 395 0 395 0 67 33 c77 38 130 92 167
171 l26 56 0 340 0 340 -27 57 c-34 73 -103 142 -176 176 l-57 27 -375 2
c-206 1 -392 -3 -413 -8z m737 -305 c24 -23 24 -555 0 -578 -13 -14 -59 -16
-344 -16 -285 0 -331 2 -344 16 -24 23 -24 555 0 578 13 14 59 16 344 16 285
0 331 -2 344 -16z"/>
<path d="M757 1739 c-98 -23 -190 -101 -235 -197 l-27 -57 0 -340 0 -340 33
-67 c38 -77 92 -130 171 -167 l56 -26 395 0 395 0 67 33 c77 38 130 92 167
171 l26 56 0 340 0 340 -27 57 c-34 73 -103 142 -176 176 l-57 27 -375 2
c-206 1 -392 -3 -413 -8z m737 -305 c24 -23 24 -555 0 -578 -13 -14 -59 -16
-344 -16 -285 0 -331 2 -344 16 -24 23 -24 555 0 578 13 14 59 16 344 16 285
0 331 -2 344 -16z"/>
<path d="M2627 1729 c-98 -23 -190 -101 -235 -197 l-27 -57 0 -340 0 -340 33
-67 c38 -77 92 -130 171 -167 l56 -26 395 0 395 0 67 33 c77 38 130 92 167
171 l26 56 0 340 0 340 -27 57 c-34 73 -103 142 -176 176 l-57 27 -375 2
c-206 1 -392 -3 -413 -8z m737 -305 c24 -23 24 -555 0 -578 -13 -14 -59 -16
-344 -16 -285 0 -331 2 -344 16 -14 13 -16 54 -16 289 0 235 2 276 16 289 13
14 59 16 344 16 285 0 331 -2 344 -16z"/>
</g>
</svg>
